<svg xmlns="http://www.w3.org/2000/svg" aria-hidden="true" style="position:absolute;width:0;height:0;overflow:hidden"><defs><symbol id="icon-Vector-3" viewBox="0 0 34 32"><path fill="#e0e0e0" d="M.889 3.556v24.889a3.555 3.555 0 0 0 3.556 3.556h24.889c1.956 0 3.556-1.6 3.556-3.556V3.556C32.89 1.6 31.29 0 29.334 0H4.445A3.555 3.555 0 0 0 .889 3.556zm21.333 7.111c0 2.951-2.382 5.333-5.333 5.333s-5.333-2.382-5.333-5.333 2.382-5.333 5.333-5.333 5.333 2.382 5.333 5.333zm-16 14.222c0-3.556 7.111-5.511 10.667-5.511s10.667 1.956 10.667 5.511v1.778H6.223v-1.778z" style="fill:var(--color1, #e0e0e0)"/></symbol><symbol id="icon-Vector-2" viewBox="0 0 26 32"><path fill="#e0e0e0" d="M22.095 10.667h-1.524V7.619C20.571 3.413 17.158 0 12.952 0S5.333 3.413 5.333 7.619v3.048H3.809a3.057 3.057 0 0 0-3.048 3.048v15.238a3.057 3.057 0 0 0 3.048 3.048h18.286a3.057 3.057 0 0 0 3.048-3.048V13.715a3.057 3.057 0 0 0-3.048-3.048zm-9.143 13.714c-1.676 0-3.048-1.371-3.048-3.048s1.371-3.048 3.048-3.048c1.676 0 3.048 1.371 3.048 3.048s-1.371 3.048-3.048 3.048zm4.724-13.714H8.228V7.619c0-2.606 2.118-4.724 4.724-4.724s4.724 2.118 4.724 4.724v3.048z" style="fill:var(--color1, #e0e0e0)"/></symbol><symbol id="icon-Vector-1" viewBox="0 0 42 32"><path fill="#e0e0e0" d="M37 0H5C2.8 0 1.02 1.8 1.02 4L1 28c0 2.2 1.8 4 4 4h32c2.2 0 4-1.8 4-4V4c0-2.2-1.8-4-4-4zm0 8L21 18 5 8V4l16 10L37 4v4z" style="fill:var(--color1, #e0e0e0)"/></symbol><symbol id="icon-logo" viewBox="0 0 145 32"><path fill="#24cca7" d="m3.755 7.619 16.211-4.537-.859-1.779C18.545.146 17.175-.331 16.047.245L1.534 7.62h2.219zM24.813 3.048a2.05 2.05 0 0 0-.586.087L9.215 7.619h18.431l-.693-2.779c-.266-1.083-1.163-1.793-2.14-1.793z" style="fill:var(--color2, #24cca7)"/><path fill="#4a56e2" d="M28.36 8.573H1.801A1.799 1.799 0 0 0 0 10.355v19.862A1.79 1.79 0 0 0 1.797 32h26.559a1.79 1.79 0 0 0 1.797-1.783v-4.973H19.491c-1.685 0-3.054-1.358-3.054-3.03V18.25c0-.82.331-1.565.866-2.111a3.03 3.03 0 0 1 2.185-.916h10.666v-4.867a1.785 1.785 0 0 0-1.793-1.783z" style="fill:var(--color3, #4a56e2)"/><path fill="#4a56e2" d="M31.414 16.926a1.804 1.804 0 0 0-1.211-.467H19.491a1.79 1.79 0 0 0-1.797 1.783v3.968a1.79 1.79 0 0 0 1.797 1.783h10.712c.205 0 .399-.036.582-.096.237-.078.449-.207.629-.371.359-.324.586-.795.586-1.316v-3.968c0-.52-.226-.991-.586-1.316zm-8.171 3.655a.895.895 0 0 1-.898.891h-.596a.895.895 0 0 1-.898-.891v-.592c0-.285.133-.538.345-.699a.911.911 0 0 1 .553-.193h.596c.496 0 .898.399.898.891v.592z" style="fill:var(--color3, #4a56e2)"/><path d="M72.672 7.952 68.28 24.8h-4.968l-2.688-11.088L57.84 24.8h-4.968L48.6 7.952h4.392l2.424 12.264 3-12.264h4.512l2.88 12.264 2.448-12.264h4.416zm1.242 10.128c0-1.376.256-2.584.768-3.624.528-1.04 1.24-1.84 2.136-2.4s1.896-.84 3-.84c.944 0 1.768.192 2.472.576.72.384 1.272.888 1.656 1.512v-1.896h4.104V24.8h-4.104v-1.896c-.4.624-.96 1.128-1.68 1.512-.704.384-1.528.576-2.472.576-1.088 0-2.08-.28-2.976-.84-.896-.576-1.608-1.384-2.136-2.424-.512-1.056-.768-2.272-.768-3.648zm10.032.024c0-1.024-.288-1.832-.864-2.424-.56-.592-1.248-.888-2.064-.888s-1.512.296-2.088.888c-.56.576-.84 1.376-.84 2.4s.28 1.84.84 2.448c.576.592 1.272.888 2.088.888s1.504-.296 2.064-.888c.576-.592.864-1.4.864-2.424zM95.123 7.04V24.8h-4.104V7.04h4.104zm7.079 0V24.8h-4.104V7.04h4.104zm15.597 10.848c0 .384-.024.784-.072 1.2h-9.288c.064.832.328 1.472.792 1.92.48.432 1.064.648 1.752.648 1.024 0 1.736-.432 2.136-1.296h4.368a5.916 5.916 0 0 1-1.224 2.376c-.576.704-1.304 1.256-2.184 1.656s-1.864.6-2.952.6c-1.312 0-2.48-.28-3.504-.84s-1.824-1.36-2.4-2.4c-.576-1.04-.864-2.256-.864-3.648s.28-2.608.84-3.648c.576-1.04 1.376-1.84 2.4-2.4s2.2-.84 3.528-.84c1.296 0 2.448.272 3.456.816s1.792 1.32 2.352 2.328c.576 1.008.864 2.184.864 3.528zm-4.2-1.08c0-.704-.24-1.264-.72-1.68s-1.08-.624-1.8-.624c-.688 0-1.272.2-1.752.6-.464.4-.752.968-.864 1.704h5.136zm13.83 4.512v3.48h-2.088c-1.488 0-2.648-.36-3.48-1.08-.832-.736-1.248-1.928-1.248-3.576v-5.328h-1.632v-3.408h1.632V8.144h4.104v3.264h2.688v3.408h-2.688v5.376c0 .4.096.688.288.864s.512.264.96.264h1.464z" style="fill:var(--color4, #000)"/><path d="m72.672 7.952.774.202.261-1.002h-1.035v.8zM68.28 24.8v.8h.618l.156-.598-.774-.202zm-4.968 0-.778.188.148.612h.629v-.8zm-2.688-11.088.777-.188-1.553-.006.776.195zM57.84 24.8v.8h.624l.152-.605-.776-.195zm-4.968 0-.776.197.153.603h.622v-.8zM48.6 7.952v-.8h-1.028l.253.997.776-.197zm4.392 0 .785-.155-.127-.645h-.657v.8zm2.424 12.264-.785.155 1.562.035-.777-.19zm3-12.264v-.8h-.628l-.149.61.777.19zm4.512 0 .779-.183-.145-.617h-.634v.8zm2.88 12.264-.779.183 1.563-.026-.784-.157zm2.448-12.264v-.8H67.6l-.128.643.785.157zm3.642-.202-4.392 16.848 1.548.404 4.392-16.848-1.548-.404zM68.28 24h-4.968v1.6h4.968V24zm-4.19.612-2.688-11.088-1.555.377 2.688 11.088 1.555-.377zm-4.242-11.095-2.784 11.088 1.552.39L61.4 13.907l-1.552-.39zM57.84 24h-4.968v1.6h4.968V24zm-4.192.603L49.376 7.755l-1.551.393 4.272 16.848 1.551-.393zM48.6 8.752h4.392v-1.6H48.6v1.6zm3.607-.645 2.424 12.264 1.57-.31-2.424-12.264-1.57.31zm3.986 12.299 3-12.264-1.554-.38-3 12.264 1.554.38zm2.223-11.654h4.512v-1.6h-4.512v1.6zm3.733-.617 2.88 12.264 1.558-.366-2.88-12.264-1.558.366zm4.444 12.238 2.448-12.264-1.569-.313-2.448 12.264 1.569.313zm1.663-11.621h4.416v-1.6h-4.416v1.6zm6.426 5.704-.713-.362-.004.009.718.353zm2.136-2.4zm5.472-.264-.383.702.006.004.377-.706zm1.656 1.512-.682.419 1.482 2.407v-2.826h-.8zm0-1.896v-.8h-.8v.8h.8zm4.104 0h.8v-.8h-.8v.8zm0 13.392v.8h.8v-.8h-.8zm-4.104 0h-.8v.8h.8v-.8zm0-1.896h.8v-2.73l-1.474 2.299.674.432zm-1.68 1.512-.377-.706-.006.004.383.702zm-5.448-.264-.433.673.009.005.424-.678zm-2.136-2.424-.72.349.003.007.003.007.713-.362zm8.4-6.048-.582.55.008.008.574-.558zm-4.152 0zm0 4.848-.588.542.007.008.008.008.573-.558zm4.152 0-.574-.558-.008.008.582.55zm-8.368-2.448c0-1.276.237-2.359.686-3.271l-1.436-.707c-.575 1.169-.85 2.502-.85 3.977h1.6zm.682-3.262c.469-.924 1.087-1.609 1.847-2.084l-.848-1.357c-1.032.645-1.838 1.56-2.425 2.716l1.427.724zm1.846-2.084c.763-.477 1.615-.718 2.576-.718v-1.6c-1.247 0-2.395.318-3.424.962l.848 1.357zm2.576-.718c.834 0 1.522.169 2.089.478l.766-1.405c-.841-.459-1.802-.674-2.855-.674v1.6zm2.096.482c.61.325 1.05.736 1.351 1.225l1.362-.839c-.466-.758-1.13-1.356-1.961-1.799l-.753 1.412zm2.832.806v-1.896h-1.6v1.896h1.6zm-.8-1.096h4.104v-1.6h-4.104v1.6zm3.304-.8V24.8h1.6V11.408h-1.6zM88.05 24h-4.104v1.6h4.104V24zm-3.304.8v-1.896h-1.6V24.8h1.6zm-1.473-2.328c-.319.497-.771.912-1.383 1.238l.753 1.412c.829-.442 1.496-1.036 1.978-1.786l-1.347-.864zm-1.39 1.242c-.567.309-1.255.478-2.089.478v1.6c1.054 0 2.015-.215 2.855-.674l-.766-1.405zm-2.089.478c-.943 0-1.787-.24-2.552-.718l-.848 1.357a6.303 6.303 0 0 0 3.4.962v-1.6zm-2.543-.713c-.765-.492-1.385-1.188-1.855-2.113l-1.427.724c.586 1.154 1.39 2.075 2.417 2.735l.865-1.346zm-1.849-2.1c-.451-.93-.688-2.023-.688-3.299h-1.6c0 1.476.275 2.815.848 3.997l1.44-.698zm9.344-3.275c0-1.18-.337-2.207-1.09-2.982l-1.147 1.116c.398.409.638.998.638 1.866h1.6zm-1.083-2.974a3.529 3.529 0 0 0-2.645-1.138v1.6a1.93 1.93 0 0 1 1.482.638l1.162-1.1zm-2.645-1.138c-1.035 0-1.937.385-2.662 1.13l1.147 1.116c.428-.439.917-.646 1.515-.646v-1.6zm-2.661 1.13c-.742.763-1.066 1.785-1.066 2.958h1.6c0-.876.236-1.454.614-1.842l-1.147-1.115zM77.29 18.08c0 1.175.325 2.201 1.052 2.99l1.177-1.084c-.393-.427-.628-1.033-.628-1.906h-1.6zm1.067 3.006a3.603 3.603 0 0 0 2.662 1.13v-1.6c-.598 0-1.087-.207-1.515-.646l-1.147 1.116zm2.661 1.13a3.529 3.529 0 0 0 2.645-1.138l-1.162-1.1a1.932 1.932 0 0 1-1.482.638v1.6zm2.638-1.13c.754-.775 1.09-1.802 1.09-2.982h-1.6c0 .868-.24 1.457-.638 1.866l1.147 1.116zM95.123 7.04h.8v-.8h-.8v.8zm0 17.76v.8h.8v-.8h-.8zm-4.104 0h-.8v.8h.8v-.8zm0-17.76v-.8h-.8v.8h.8zm3.304 0V24.8h1.6V7.04h-1.6zm.8 16.96h-4.104v1.6h4.104V24zm-3.304.8V7.04h-1.6V24.8h1.6zm-.8-16.96h4.104v-1.6h-4.104v1.6zm11.183-.8h.8v-.8h-.8v.8zm0 17.76v.8h.8v-.8h-.8zm-4.104 0h-.8v.8h.8v-.8zm0-17.76v-.8h-.8v.8h.8zm3.304 0V24.8h1.6V7.04h-1.6zm.8 16.96h-4.104v1.6h4.104V24zm-3.304.8V7.04h-1.6V24.8h1.6zm-.8-16.96h4.104v-1.6h-4.104v1.6zm19.629 11.248v.8h.714l.082-.708-.795-.092zm-9.288 0v-.8h-.863l.066.861.798-.061zm.792 1.92-.555.576.01.01.01.009.535-.595zm3.888-.648v-.8h-.511l-.214.464.726.336zm4.368 0 .776.197.254-.997h-1.03v.8zm-1.224 2.376-.612-.515-.007.008.619.507zm-2.184 1.656zm-6.456-.24zm-2.4-2.4zm-.024-7.296-.699-.388-.005.008.704.379zm2.4-2.4zm6.984-.024zm2.352 2.328-.699.389.005.008.694-.397zm-3.336 2.448v.8h.8v-.8h-.8zm-.72-1.68zm-3.552-.024-.512-.615-.005.004-.006.004.522.606zm-.864 1.704-.79-.12-.14.92h.93v-.8zm8.536 1.08c0 .351-.022.72-.066 1.108l1.59.183c.051-.444.077-.874.077-1.292H117zm.728.4h-9.288v1.6h9.288v-1.6zm-10.085.861c.074.968.392 1.814 1.034 2.434l1.111-1.151c-.286-.276-.497-.71-.55-1.406l-1.595.123zm1.054 2.454c.638.573 1.416.853 2.287.853v-1.6c-.504 0-.894-.152-1.217-.443l-1.07 1.189zm2.287.853c.625 0 1.21-.132 1.718-.44.51-.31.888-.765 1.145-1.32l-1.452-.672c-.143.309-.322.502-.523.624-.205.124-.488.208-.887.208v1.6zm2.136-1.296h4.368v-1.6h-4.368v1.6zm3.593-.997a5.12 5.12 0 0 1-1.061 2.058l1.225 1.03a6.719 6.719 0 0 0 1.387-2.694l-1.551-.395zm-1.068 2.066a5.15 5.15 0 0 1-1.895 1.434l.662 1.457a6.754 6.754 0 0 0 2.472-1.878l-1.238-1.013zm-1.895 1.435c-.764.347-1.633.528-2.622.528v1.6c1.188 0 2.287-.219 3.283-.672l-.662-1.457zm-2.622.528c-1.194 0-2.227-.254-3.12-.742l-.767 1.404c1.155.632 2.458.938 3.887.938v-1.6zm-3.12-.742a5.18 5.18 0 0 1-2.084-2.086l-1.399.775a6.77 6.77 0 0 0 2.716 2.714l.767-1.404zm-2.084-2.086c-.5-.903-.764-1.981-.764-3.26h-1.6c0 1.504.312 2.858.965 4.036l1.399-.775zm-.764-3.26c0-1.283.258-2.364.745-3.269l-1.409-.759c-.633 1.176-.936 2.527-.936 4.027h1.6zm.74-3.26a5.18 5.18 0 0 1 2.084-2.086l-.767-1.404a6.77 6.77 0 0 0-2.716 2.714l1.399.775zm2.084-2.086c.891-.487 1.932-.742 3.144-.742v-1.6c-1.443 0-2.754.305-3.911.938l.767 1.404zm3.144-.742c1.182 0 2.2.247 3.077.72l.759-1.408c-1.139-.615-2.425-.912-3.836-.912v1.6zm3.077.72a4.984 4.984 0 0 1 2.032 2.012l1.399-.777a6.585 6.585 0 0 0-2.672-2.644l-.759 1.408zm2.037 2.021c.497.869.758 1.904.758 3.131h1.6c0-1.461-.314-2.778-.969-3.925l-1.39.794zm-1.842 2.051c0-.908-.32-1.699-.996-2.285l-1.047 1.209c.284.246.443.575.443 1.075h1.6zm-.996-2.285c-.645-.559-1.438-.819-2.324-.819v1.6c.555 0 .962.155 1.277.429l1.047-1.209zm-2.324-.819c-.854 0-1.626.253-2.264.785l1.025 1.229c.321-.268.718-.415 1.239-.415v-1.6zm-2.274.794c-.638.55-.998 1.307-1.132 2.19l1.582.241c.09-.59.306-.968.595-1.218l-1.045-1.212zm-.342 3.11h5.136v-1.6h-5.136v1.6zm18.966 3.712h.8v-.8h-.8v.8zm0 3.48v.8h.8v-.8h-.8zm-5.568-1.08-.53.599.006.006.524-.605zm-1.248-8.904h.8v-.8h-.8v.8zm-1.632 0h-.8v.8h.8v-.8zm0-3.408v-.8h-.8v.8h.8zm1.632 0v.8h.8v-.8h-.8zm0-3.264v-.8h-.8v.8h.8zm4.104 0h.8v-.8h-.8v.8zm0 3.264h-.8v.8h.8v-.8zm2.688 0h.8v-.8h-.8v.8zm0 3.408v.8h.8v-.8h-.8zm-2.688 0v-.8h-.8v.8h.8zm.288 6.24zm1.624.264v3.48h1.6v-3.48h-1.6zm.8 2.68h-2.088v1.6h2.088V24zm-2.088 0c-1.364 0-2.314-.329-2.957-.885l-1.047 1.21c1.022.884 2.392 1.275 4.004 1.275V24zm-2.951-.879c-.591-.523-.978-1.446-.978-2.977h-1.6c0 1.765.445 3.226 1.518 4.175l1.06-1.198zm-.977-2.977v-5.328h-1.6v5.328h1.6zm-.8-6.128h-1.632v1.6h1.632v-1.6zm-.832.8v-3.408h-1.6v3.408h1.6zm-.8-2.608h1.632v-1.6h-1.632v1.6zm2.432-.8V8.144h-1.6v3.264h1.6zm-.8-2.464h4.104v-1.6h-4.104v1.6zm3.304-.8v3.264h1.6V8.144h-1.6zm.8 4.064h2.688v-1.6h-2.688v1.6zm1.888-.8v3.408h1.6v-3.408h-1.6zm.8 2.608h-2.688v1.6h2.688v-1.6zm-3.488.8v5.376h1.6v-5.376h-1.6zm0 5.376c0 .505.119 1.061.547 1.454l1.081-1.18c.02.018.015.025.002-.011a.865.865 0 0 1-.03-.263h-1.6zm.547 1.454c.414.38.985.474 1.501.474v-1.6c-.176 0-.293-.018-.364-.037s-.075-.034-.056-.016l-1.081 1.18zm1.501.474h1.464v-1.6h-1.464v1.6z" style="fill:var(--color4, #000)"/></symbol></defs></svg>